<svg width="50" height="50" viewBox="0 0 50 50" fill="none" xmlns="http://www.w3.org/2000/svg">
<rect width="50" height="50" rx="15" fill="#3B3B3B"/>
<g clip-path="url(#clip0_279_68)">
<path d="M28.5 27H27.71L27.43 26.73C28.63 25.33 29.25 23.42 28.91 21.39C28.44 18.61 26.12 16.39 23.32 16.05C19.09 15.53 15.53 19.09 16.05 23.32C16.39 26.12 18.61 28.44 21.39 28.91C23.42 29.25 25.33 28.63 26.73 27.43L27 27.71V28.5L31.25 32.75C31.66 33.16 32.33 33.16 32.74 32.75C33.15 32.34 33.15 31.67 32.74 31.26L28.5 27ZM22.5 27C20.01 27 18 24.99 18 22.5C18 20.01 20.01 18 22.5 18C24.99 18 27 20.01 27 22.5C27 24.99 24.99 27 22.5 27Z" fill="white"/>
</g>
<defs>
<clipPath id="clip0_279_68">
<rect width="24" height="24" fill="white" transform="translate(13 13)"/>
</clipPath>
</defs>
</svg>
